<?xml version="1.0" encoding="utf-8" standalone="no"?>
<!DOCTYPE svg PUBLIC "-//W3C//DTD SVG 1.1//EN"
  "http://www.w3.org/Graphics/SVG/1.1/DTD/svg11.dtd">
<svg xmlns:xlink="http://www.w3.org/1999/xlink" width="291.756pt" height="133.56pt" viewBox="0 0 291.756 133.56" xmlns="http://www.w3.org/2000/svg" version="1.1">
 <metadata>
  <rdf:RDF xmlns:dc="http://purl.org/dc/elements/1.1/" xmlns:cc="http://creativecommons.org/ns#" xmlns:rdf="http://www.w3.org/1999/02/22-rdf-syntax-ns#">
   <cc:Work>
    <dc:type rdf:resource="http://purl.org/dc/dcmitype/StillImage"/>
    <dc:date>2026-01-13T10:16:44.913419</dc:date>
    <dc:format>image/svg+xml</dc:format>
    <dc:creator>
     <cc:Agent>
      <dc:title>Matplotlib v3.10.8, https://matplotlib.org/</dc:title>
     </cc:Agent>
    </dc:creator>
   </cc:Work>
  </rdf:RDF>
 </metadata>
 <defs>
  <style type="text/css">*{stroke-linejoin: round; stroke-linecap: butt}</style>
 </defs>
 <g id="figure_1">
  <g id="patch_1">
   <path d="M 0 133.56 
L 291.756 133.56 
L 291.756 0 
L 0 0 
z
" style="fill: #ffffff"/>
  </g>
  <g id="axes_1">
   <g id="patch_2">
    <path d="M 53.076 92.88 
C 57.849656 92.88 62.428438 90.983406 65.803922 87.607922 
C 69.179406 84.232438 71.076 79.653656 71.076 74.88 
C 71.076 70.106344 69.179406 65.527562 65.803922 62.152078 
C 62.428438 58.776594 57.849656 56.88 53.076 56.88 
C 48.302344 56.88 43.723562 58.776594 40.348078 62.152078 
C 36.972594 65.527562 35.076 70.106344 35.076 74.88 
C 35.076 79.653656 36.972594 84.232438 40.348078 87.607922 
C 43.723562 90.983406 48.302344 92.88 53.076 92.88 
L 53.076 92.88 
z
" clip-path="url(#pbb09399535)" style="fill: none; stroke: #000000; stroke-width: 2; stroke-linejoin: miter"/>
   </g>
   <g id="patch_3">
    <path d="M 269.076 92.88 
C 273.849656 92.88 278.428438 90.983406 281.803922 87.607922 
C 285.179406 84.232438 287.076 79.653656 287.076 74.88 
C 287.076 70.106344 285.179406 65.527562 281.803922 62.152078 
C 278.428438 58.776594 273.849656 56.88 269.076 56.88 
C 264.302344 56.88 259.723562 58.776594 256.348078 62.152078 
C 252.972594 65.527562 251.076 70.106344 251.076 74.88 
C 251.076 79.653656 252.972594 84.232438 256.348078 87.607922 
C 259.723562 90.983406 264.302344 92.88 269.076 92.88 
L 269.076 92.88 
z
" clip-path="url(#pbb09399535)" style="fill: none; stroke: #000000; stroke-width: 2; stroke-linejoin: miter"/>
   </g>
   <g id="line2d_1">
    <path d="M 53.076 128.88 
L 53.076 92.88 
L 53.076 92.88 
M 53.076 56.88 
L 53.076 56.88 
L 53.076 20.88 
" clip-path="url(#pbb09399535)" style="fill: none; stroke: #000000; stroke-width: 2; stroke-linecap: round"/>
   </g>
   <g id="line2d_2">
    <path d="M 56.676 83.88 
L 49.476 83.88 
" clip-path="url(#pbb09399535)" style="fill: none; stroke: #000000; stroke-width: 2; stroke-linecap: round"/>
   </g>
   <g id="line2d_3">
    <path d="M 53.076 69.48 
L 53.076 62.28 
" clip-path="url(#pbb09399535)" style="fill: none; stroke: #000000; stroke-width: 2; stroke-linecap: round"/>
   </g>
   <g id="line2d_4">
    <path d="M 56.676 65.88 
L 49.476 65.88 
" clip-path="url(#pbb09399535)" style="fill: none; stroke: #000000; stroke-width: 2; stroke-linecap: round"/>
   </g>
   <g id="line2d_5">
    <path d="M 53.076 20.88 
L 89.076 20.88 
L 119.676 4.68 
M 125.076 20.88 
L 161.076 20.88 
" clip-path="url(#pbb09399535)" style="fill: none; stroke: #000000; stroke-width: 2; stroke-linecap: round"/>
   </g>
   <g id="line2d_6">
    <path d="M 161.076 20.88 
L 161.076 56.88 
L 170.076 59.88 
L 152.076 65.88 
L 170.076 71.88 
L 152.076 77.88 
L 170.076 83.88 
L 152.076 89.88 
L 161.076 92.88 
L 161.076 128.88 
" clip-path="url(#pbb09399535)" style="fill: none; stroke: #000000; stroke-width: 2; stroke-linecap: round"/>
   </g>
   <g id="line2d_7">
    <path d="M 161.076 128.88 
L 107.076 128.88 
L 53.076 128.88 
" clip-path="url(#pbb09399535)" style="fill: none; stroke: #000000; stroke-width: 2; stroke-linecap: round"/>
   </g>
   <g id="line2d_8">
    <path d="M 161.076 20.88 
L 215.076 20.88 
L 269.076 20.88 
" clip-path="url(#pbb09399535)" style="fill: none; stroke: #000000; stroke-width: 2; stroke-linecap: round"/>
   </g>
   <g id="line2d_9">
    <path d="M 269.076 20.88 
L 269.076 56.88 
L 269.076 56.88 
M 269.076 92.88 
L 269.076 92.88 
L 269.076 128.88 
" clip-path="url(#pbb09399535)" style="fill: none; stroke: #000000; stroke-width: 2; stroke-linecap: round"/>
   </g>
   <g id="line2d_10">
    <path d="M 269.076 128.88 
L 161.076 128.88 
L 53.076 128.88 
" clip-path="url(#pbb09399535)" style="fill: none; stroke: #000000; stroke-width: 2; stroke-linecap: round"/>
   </g>
   <g id="text_1">
    <!-- $V_{cc}$ -->
    <g transform="translate(10.616 78.743125) scale(0.14 -0.14)">
     <defs>
      <path id="DejaVuSans-Oblique-56" d="M 1319 0 
L 500 4666 
L 1119 4666 
L 1797 653 
L 4063 4666 
L 4750 4666 
L 2053 0 
L 1319 0 
z
" transform="scale(0.015625)"/>
      <path id="DejaVuSans-Oblique-63" d="M 3431 3366 
L 3316 2797 
Q 3109 2947 2876 3022 
Q 2644 3097 2394 3097 
Q 2119 3097 1870 3000 
Q 1622 2903 1453 2725 
Q 1184 2453 1037 2087 
Q 891 1722 891 1331 
Q 891 859 1127 628 
Q 1363 397 1844 397 
Q 2081 397 2348 469 
Q 2616 541 2906 684 
L 2797 116 
Q 2547 13 2283 -39 
Q 2019 -91 1741 -91 
Q 1044 -91 669 257 
Q 294 606 294 1253 
Q 294 1797 489 2255 
Q 684 2713 1069 3078 
Q 1331 3328 1684 3456 
Q 2038 3584 2456 3584 
Q 2700 3584 2940 3529 
Q 3181 3475 3431 3366 
z
" transform="scale(0.015625)"/>
     </defs>
     <use xlink:href="#DejaVuSans-Oblique-56" transform="translate(0 0.09375)"/>
     <use xlink:href="#DejaVuSans-Oblique-63" transform="translate(68.408203 -16.3125) scale(0.7)"/>
     <use xlink:href="#DejaVuSans-Oblique-63" transform="translate(106.894531 -16.3125) scale(0.7)"/>
    </g>
   </g>
   <g id="text_2">
    <!-- R -->
    <g transform="translate(138.748187 78.743125) scale(0.14 -0.14)">
     <defs>
      <path id="DejaVuSans-52" d="M 2841 2188 
Q 3044 2119 3236 1894 
Q 3428 1669 3622 1275 
L 4263 0 
L 3584 0 
L 2988 1197 
Q 2756 1666 2539 1819 
Q 2322 1972 1947 1972 
L 1259 1972 
L 1259 0 
L 628 0 
L 628 4666 
L 2053 4666 
Q 2853 4666 3247 4331 
Q 3641 3997 3641 3322 
Q 3641 2881 3436 2590 
Q 3231 2300 2841 2188 
z
M 1259 4147 
L 1259 2491 
L 2053 2491 
Q 2509 2491 2742 2702 
Q 2975 2913 2975 3322 
Q 2975 3731 2742 3939 
Q 2509 4147 2053 4147 
L 1259 4147 
z
" transform="scale(0.015625)"/>
     </defs>
     <use xlink:href="#DejaVuSans-52"/>
    </g>
   </g>
   <g id="text_3">
    <!-- $\Omega$ -->
    <g transform="translate(263.686 78.743125) scale(0.14 -0.14)">
     <defs>
      <path id="DejaVuSans-3a9" d="M 4647 556 
L 4647 0 
L 2772 0 
L 2772 556 
Q 3325 859 3634 1378 
Q 3944 1897 3944 2528 
Q 3944 3278 3531 3731 
Q 3119 4184 2444 4184 
Q 1769 4184 1355 3729 
Q 941 3275 941 2528 
Q 941 1897 1250 1378 
Q 1563 859 2119 556 
L 2119 0 
L 244 0 
L 244 556 
L 1241 556 
Q 747 991 519 1456 
Q 294 1922 294 2497 
Q 294 3491 894 4106 
Q 1491 4722 2444 4722 
Q 3391 4722 3994 4106 
Q 4594 3494 4594 2528 
Q 4594 1922 4372 1459 
Q 4150 997 3647 556 
L 4647 556 
z
" transform="scale(0.015625)"/>
     </defs>
     <use xlink:href="#DejaVuSans-3a9" transform="translate(0 0.21875)"/>
    </g>
   </g>
  </g>
 </g>
 <defs>
  <clipPath id="pbb09399535">
   <rect x="0" y="0" width="291.756" height="133.56"/>
  </clipPath>
 </defs>
</svg>
